HIERARCHY
ROOT Hips
{
	OFFSET -0.001795 -0.223333 0.028219
	CHANNELS 6 Xposition Yposition Zposition Zrotation Yrotation Xrotation 
	JOINT LeftUpLeg
	{
		OFFSET 0.069520 -0.091406 -0.006815
		CHANNELS 3 Zrotation Yrotation Xrotation
		JOINT LeftLeg
		{
			OFFSET 0.034277 -0.375199 -0.004496
			CHANNELS 3 Zrotation Yrotation Xrotation
			JOINT LeftFoot
			{
				OFFSET -0.013596 -0.397961 -0.043693
				CHANNELS 3 Zrotation Yrotation Xrotation
				JOINT LeftToe
				{
					OFFSET 0.026358 -0.055791 0.119288
					CHANNELS 3 Zrotation Yrotation Xrotation
					End Site
					{
						OFFSET 0.000000 0.000000 0.000000
					}
				}
			}
		}
	}
	JOINT RightUpLeg
	{
		OFFSET -0.067670 -0.090522 -0.004320
		CHANNELS 3 Zrotation Yrotation Xrotation
		JOINT RightLeg
		{
			OFFSET -0.038290 -0.382569 -0.008850
			CHANNELS 3 Zrotation Yrotation Xrotation
			JOINT RightFoot
			{
				OFFSET 0.015774 -0.398415 -0.042312
				CHANNELS 3 Zrotation Yrotation Xrotation
				JOINT RightToe
				{
					OFFSET -0.025372 -0.048144 0.123348
					CHANNELS 3 Zrotation Yrotation Xrotation
					End Site
					{
						OFFSET 0.000000 0.000000 0.000000
					}
				}
			}
		}
	}
	JOINT Spine
	{
		OFFSET -0.002533 0.108963 -0.026696
		CHANNELS 3 Zrotation Yrotation Xrotation
		JOINT Spine1
		{
			OFFSET 0.005487 0.135180 0.001092
			CHANNELS 3 Zrotation Yrotation Xrotation
			JOINT Spine2
			{
				OFFSET 0.001457 0.052922 0.025425
				CHANNELS 3 Zrotation Yrotation Xrotation
				JOINT Neck
				{
					OFFSET -0.002778 0.213870 -0.042857
					CHANNELS 3 Zrotation Yrotation Xrotation
					JOINT Head
					{
						OFFSET 0.005152 0.064970 0.051349
						CHANNELS 3 Zrotation Yrotation Xrotation
						End Site
						{
							OFFSET 0.000000 0.000000 0.000000
						}
					}
				}
				JOINT LeftShoulder
				{
					OFFSET 0.078845 0.121749 -0.034090
					CHANNELS 3 Zrotation Yrotation Xrotation
					JOINT LeftArm
					{
						OFFSET 0.090977 0.030469 -0.008868
						CHANNELS 3 Zrotation Yrotation Xrotation
						JOINT LeftForeArm
						{
							OFFSET 0.259612 -0.012772 -0.027456
							CHANNELS 3 Zrotation Yrotation Xrotation
							JOINT LeftHand
							{
								OFFSET 0.249234 0.008986 -0.001171
								CHANNELS 3 Zrotation Yrotation Xrotation
								End Site
								{
									OFFSET 0.000000 0.000000 0.000000
								}
							}
						}
					}
				}
				JOINT RightShoulder
				{
					OFFSET -0.081759 0.118833 -0.038615
					CHANNELS 3 Zrotation Yrotation Xrotation
					JOINT RightArm
					{
						OFFSET -0.096012 0.032551 -0.009143
						CHANNELS 3 Zrotation Yrotation Xrotation
						JOINT RightForeArm
						{
							OFFSET -0.253742 -0.013329 -0.021401
							CHANNELS 3 Zrotation Yrotation Xrotation
							JOINT RightHand
							{
								OFFSET -0.255298 0.007772 -0.005559
								CHANNELS 3 Zrotation Yrotation Xrotation
								End Site
								{
									OFFSET 0.000000 0.000000 0.000000
								}
							}
						}
					}
				}
			}
		}
	}
}
MOTION
Frames: 13
Frame Time: 0.050000
0.000990 0.979099 -0.009456 -1.002810 4.022884 0.661859 -0.886479 0.526558 5.447950 2.447242 0.098970 -6.508139 -1.469775 4.199373 15.946332 0.000000 0.000000 0.000000 4.425440 -0.861289 5.336514 -3.099846 -0.001303 -5.184454 -2.817731 -10.445977 15.527781 0.000000 0.000000 0.000000 0.509619 -0.166190 3.520789 1.401876 0.451048 -28.404717 -1.962655 -1.518445 30.943793 2.038489 -0.181505 -17.685908 0.000000 0.000000 0.000000 17.934583 8.323883 -1.032210 -4.735167 -11.324796 -1.006245 -2.662336 -2.663526 0.127230 0.000000 0.000000 0.000000 -21.436055 -8.702021 -1.278717 8.103508 7.851062 -1.066671 2.754850 9.596416 0.438136 0.000000 0.000000 0.000000 
0.001039 0.979084 -0.010737 -0.983109 3.912158 0.629885 -0.727008 0.538036 5.688480 2.185823 0.121926 -6.732817 -1.375559 4.371886 16.087429 0.000000 0.000000 0.000000 4.366192 -0.880823 5.499682 -3.072208 -0.012098 -5.307339 -2.895418 -10.619923 15.647544 0.000000 0.000000 0.000000 0.473101 -0.147613 3.157805 1.409252 0.442241 -28.172216 -1.908446 -1.470812 31.178139 2.003247 -0.192150 -17.362996 0.000000 0.000000 0.000000 18.367329 8.276527 -1.001467 -4.879251 -11.473109 -1.019711 -2.681173 -2.316563 0.108000 0.000000 0.000000 0.000000 -21.892391 -8.558695 -1.228090 8.315940 8.096147 -1.080032 2.791595 9.188762 0.417981 0.000000 0.000000 0.000000 
0.001074 0.978913 -0.012016 -1.020656 3.841519 0.640042 -0.573725 0.526389 5.672788 2.065596 0.125288 -6.691427 -1.149020 4.698127 16.076762 0.000000 0.000000 0.000000 4.285639 -0.867241 5.445288 -2.948262 -0.014150 -5.216120 -2.995684 -10.795620 15.577937 0.000000 0.000000 0.000000 0.492599 -0.145210 3.089162 1.427761 0.438043 -28.178216 -1.847412 -1.414024 31.285917 1.966775 -0.184076 -17.157062 0.000000 0.000000 0.000000 18.723147 8.233586 -0.967259 -4.898853 -11.527152 -1.022872 -2.856262 -2.237175 0.105249 0.000000 0.000000 0.000000 -22.048494 -8.563530 -1.229549 8.372615 8.345384 -1.083920 2.732833 8.945175 0.401892 0.000000 0.000000 0.000000 
0.001105 0.978690 -0.013289 -1.037971 3.638481 0.520782 -0.459190 0.516508 5.636797 1.920321 0.121944 -6.482424 -1.046739 4.821940 16.074755 0.000000 0.000000 0.000000 4.179415 -0.872550 5.542826 -2.789187 -0.014649 -5.058424 -2.959797 -10.765531 15.594882 0.000000 0.000000 0.000000 0.516262 -0.143598 3.040867 1.434413 0.430714 -28.005402 -1.820788 -1.336473 31.361673 1.958963 -0.206261 -16.945033 0.000000 0.000000 0.000000 18.816344 8.287886 -0.991116 -4.888037 -11.494629 -1.023773 -2.832236 -2.360774 0.111889 0.000000 0.000000 0.000000 -22.195843 -8.613401 -1.222238 8.486899 8.606661 -1.091068 2.728010 8.697935 0.388313 0.000000 0.000000 0.000000 
0.001144 0.978212 -0.014481 -1.015871 3.501609 0.435318 -0.437254 0.528494 5.779723 1.715448 0.128243 -6.410259 -0.863094 5.038262 15.955990 0.000000 0.000000 0.000000 4.145862 -0.873656 5.574726 -2.719475 -0.014876 -4.986542 -3.037148 -10.913409 15.551868 0.000000 0.000000 0.000000 0.516945 -0.146382 3.103929 1.382254 0.440433 -28.019047 -1.773251 -1.270867 31.301962 1.943148 -0.199300 -16.919163 0.000000 0.000000 0.000000 18.869036 8.216026 -0.977651 -4.989556 -11.406672 -1.026472 -2.652468 -2.437244 0.113897 0.000000 0.000000 0.000000 -22.229782 -8.426792 -1.184919 8.527194 8.496697 -1.094455 2.466828 8.739293 0.376730 0.000000 0.000000 0.000000 
0.001208 0.977749 -0.015615 -1.012862 3.374323 0.402218 -0.375249 0.530169 5.837525 1.581807 0.132015 -6.351878 -0.666157 5.264194 15.797138 0.000000 0.000000 0.000000 4.019496 -0.879961 5.684784 -2.441808 -0.036851 -5.032652 -3.196116 -11.215218 15.571604 0.000000 0.000000 0.000000 0.552675 -0.140320 2.949127 1.387440 0.435027 -27.875217 -1.740006 -1.161352 31.346839 1.884169 -0.165021 -16.784327 0.000000 0.000000 0.000000 18.570643 8.216435 -1.009622 -4.928910 -11.214922 -1.021458 -2.122447 -3.044422 0.137630 0.000000 0.000000 0.000000 -22.138305 -8.575474 -1.229757 8.455567 8.675293 -1.092198 2.284552 8.735383 0.367296 0.000000 0.000000 0.000000 
0.001234 0.976765 -0.016670 -1.017010 3.563736 0.358357 -0.296301 0.511460 5.703487 1.462305 0.122217 -5.989601 -0.471642 5.465456 15.426097 0.000000 0.000000 0.000000 3.956204 -0.853816 5.534429 -2.326866 -0.024287 -4.717758 -3.408990 -11.494360 15.092111 0.000000 0.000000 0.000000 0.613945 -0.144899 3.003185 1.325226 0.446319 -27.727868 -1.679104 -1.136997 31.316604 1.898429 -0.193115 -16.347774 0.000000 0.000000 0.000000 18.284210 8.077935 -0.984218 -4.650421 -11.431535 -1.013728 -1.925520 -2.987986 0.131048 0.000000 0.000000 0.000000 -21.994040 -8.689263 -1.307917 8.308891 8.587183 -1.090724 1.814772 8.629781 0.340125 0.000000 0.000000 0.000000 
0.001273 0.976090 -0.017632 -1.024417 3.466431 0.364092 -0.242090 0.488039 5.467160 1.310998 0.112937 -5.584855 -0.315409 5.576500 15.073216 0.000000 0.000000 0.000000 3.866512 -0.804958 5.236105 -2.129504 -0.019867 -4.412381 -3.480286 -11.597845 14.860368 0.000000 0.000000 0.000000 0.767103 -0.145770 2.908989 1.201830 0.467972 -27.573730 -1.666472 -1.022698 31.390992 2.027495 -0.306257 -16.054902 0.000000 0.000000 0.000000 17.973214 7.801444 -0.964151 -4.533424 -10.845518 -0.994384 -1.829729 -3.749272 0.164784 0.000000 0.000000 0.000000 -21.785248 -8.853139 -1.377564 8.082817 8.559002 -1.083856 1.711696 8.626294 0.334955 0.000000 0.000000 0.000000 
0.001280 0.975281 -0.018368 -0.931264 3.315968 0.347485 -0.309032 0.495324 5.484727 1.087409 0.123115 -5.534185 -0.045189 5.924138 14.937269 0.000000 0.000000 0.000000 3.836931 -0.780951 5.084725 -2.116959 -0.022667 -4.436683 -3.774678 -12.120582 14.713624 0.000000 0.000000 0.000000 0.871921 -0.160617 3.137338 0.980472 0.515636 -27.701963 -1.663336 -0.777901 31.238086 2.153684 -0.368423 -16.079912 0.000000 0.000000 0.000000 18.077617 7.329744 -0.835003 -4.839247 -10.539232 -1.004058 -1.450014 -3.862183 0.160036 0.000000 0.000000 0.000000 -21.728407 -8.654213 -1.381982 8.101328 8.343966 -1.088251 1.200404 8.567170 0.308463 0.000000 0.000000 0.000000 
0.001291 0.974522 -0.018989 -0.920323 3.305162 0.448481 -0.218488 0.466741 5.222612 0.853202 0.132376 -5.437876 0.113350 6.084662 14.680703 0.000000 0.000000 0.000000 3.775130 -0.750464 4.890726 -1.991519 -0.022764 -4.282726 -3.873492 -12.278183 14.569947 0.000000 0.000000 0.000000 0.911709 -0.162687 3.142752 0.931240 0.525628 -27.680576 -1.636046 -0.806691 31.048889 2.172059 -0.365606 -16.308860 0.000000 0.000000 0.000000 17.529811 7.119343 -0.845436 -4.815863 -9.941902 -0.988488 -0.613537 -4.924494 0.175948 0.000000 0.000000 0.000000 -21.471568 -8.634237 -1.391108 7.748407 7.974559 -1.068892 0.811158 8.984745 0.303526 0.000000 0.000000 0.000000 
0.001315 0.973584 -0.019383 -0.881007 3.605425 0.459892 -0.151465 0.450522 5.107435 0.808967 0.129509 -5.297906 0.173820 6.156572 14.487564 0.000000 0.000000 0.000000 3.654395 -0.707295 4.636064 -1.924241 -0.004755 -3.903899 -4.192761 -12.765009 14.191720 0.000000 0.000000 0.000000 0.828254 -0.168563 3.324839 1.076892 0.500547 -27.736388 -1.736386 -0.980027 31.018677 2.082937 -0.306532 -16.283837 0.000000 0.000000 0.000000 16.999114 7.030734 -0.869895 -4.527627 -9.896395 -0.969100 -0.072194 -5.079235 0.160870 0.000000 0.000000 0.000000 -21.481525 -8.562174 -1.394894 7.612490 7.533793 -1.063650 0.192066 9.186401 0.276750 0.000000 0.000000 0.000000 
0.001336 0.973219 -0.019684 -0.891914 3.514124 0.608551 -0.171580 0.435431 4.909110 0.831200 0.126042 -5.238895 0.357312 6.382543 14.345786 0.000000 0.000000 0.000000 3.706388 -0.676550 4.383673 -1.919784 0.000777 -3.796403 -4.391138 -13.125939 14.171173 0.000000 0.000000 0.000000 0.805434 -0.158046 3.119249 1.203753 0.470075 -27.656983 -1.729658 -0.936241 31.111833 2.141158 -0.334472 -16.469461 0.000000 0.000000 0.000000 16.487894 7.093556 -0.936083 -4.356886 -9.559920 -0.950437 0.310578 -5.929529 0.168737 0.000000 0.000000 0.000000 -21.287210 -8.531029 -1.408133 7.125373 7.222961 -1.029518 0.123769 9.437333 0.278664 0.000000 0.000000 0.000000 
0.001358 0.973139 -0.019831 -0.863613 3.497329 0.765233 -0.294653 0.441440 4.885838 0.912366 0.128445 -5.418504 0.500859 6.608285 14.372887 0.000000 0.000000 0.000000 3.801026 -0.664031 4.244176 -1.972925 -0.002956 -3.928149 -4.651836 -13.608022 14.316274 0.000000 0.000000 0.000000 0.800296 -0.155259 3.057729 1.212389 0.470458 -27.745438 -1.779575 -0.884436 31.186551 2.178049 -0.340528 -16.629905 0.000000 0.000000 0.000000 16.448067 7.131107 -0.945911 -4.436952 -9.355802 -0.952191 0.429342 -6.442176 0.175834 0.000000 0.000000 0.000000 -21.181854 -8.597783 -1.442669 6.933701 6.982810 -1.016510 0.101424 9.430904 0.277177 0.000000 0.000000 0.000000 
